<svg width="250" height="223" viewBox="0 0 250 223" fill="none" xmlns="http://www.w3.org/2000/svg">
<path opacity="0.05" d="M133.067 222.194L3.16071e-06 99.6059L25.118 72.3407L45.0963 90.7457L49.0719 86.4302C45.9912 78.9369 45.0991 69.7997 46.3868 59.0108C47.6745 48.2219 54.2101 36.4407 65.9771 23.6677C75.2564 13.5952 85.7605 6.70579 97.4654 3.02556C109.178 -0.663359 121.197 -0.972751 133.536 2.06342C145.867 5.10828 157.793 11.9379 169.306 22.5442L249.202 96.1479L223.588 123.951L145.854 52.3393C134.342 41.733 123.186 36.7852 112.386 37.479C101.587 38.1895 91.5562 43.5723 82.2689 53.6534C71.6538 65.176 66.9354 77.877 68.1143 91.773C69.2845 105.661 77.0761 119.244 91.4716 132.506L158.682 194.423L133.068 222.227L133.067 222.194Z" fill="black"/>
</svg>
